<?xml version="1.0" encoding="utf-8"?>
<svg viewBox="114.117 172.107 170 36" xmlns="http://www.w3.org/2000/svg">
  <defs>
    <linearGradient id="paint0_linear_120_1360" x1="15" y1="3" x2="15" y2="33" gradientUnits="userSpaceOnUse" gradientTransform="matrix(1, 0, 0, 1, 127.589844, 171.82983)">
      <stop stop-color="#877EFF"/>
      <stop offset="0.4615" stop-color="#685DFF"/>
      <stop offset="1" stop-color="#3121FF"/>
    </linearGradient>
  </defs>
  <path fill-rule="evenodd" clip-rule="evenodd" d="M 155.423 189.831 C 155.423 196.918 149.678 202.664 142.59 202.664 C 135.502 202.664 129.757 196.918 129.757 189.831 C 129.757 182.743 135.502 176.997 142.59 176.997 C 149.678 176.997 155.423 182.743 155.423 189.831 Z M 157.59 189.831 C 157.59 198.115 150.874 204.831 142.59 204.831 C 134.306 204.831 127.59 198.115 127.59 189.831 C 127.59 181.546 134.306 174.831 142.59 174.831 C 150.874 174.831 157.59 181.546 157.59 189.831 Z M 150.866 183.106 C 150.866 183.963 150.171 184.658 149.314 184.658 C 148.457 184.658 147.762 183.963 147.762 183.106 C 147.762 182.249 148.457 181.555 149.314 181.555 C 150.171 181.555 150.866 182.249 150.866 183.106 Z M 138.078 191.04 C 138.745 193.531 141.307 195.01 143.799 194.343 C 146.291 193.675 147.769 191.113 147.102 188.622 C 146.434 186.13 143.873 184.651 141.381 185.319 C 138.889 185.986 137.41 188.548 138.078 191.04 Z M 135.985 191.6 C 136.962 195.248 140.712 197.413 144.359 196.435 C 148.007 195.458 150.172 191.709 149.195 188.061 C 148.217 184.413 144.468 182.248 140.82 183.226 C 137.172 184.203 135.008 187.953 135.985 191.6 Z" fill="url(#paint0_linear_120_1360)"/>
  <text style="fill: rgb(255, 255, 255); font-family: Arial, sans-serif; font-size: 26px; font-weight: 700; white-space: pre;" x="166.979" y="199.578">SociNex</text>
</svg>